{"title":"Nicki Minaj @ Hackney 2012 (BBC HD - 23Jun2012)-dylwys","uid":7407329,"size":1235613080,"categoryP":"video","categoryS":"other","magnet":"?xt=urn:btih:fadc5edf6927def434828e30e6fb340a80ff506a&amp;dn=Nicki+Minaj+%40+Hackney+2012+%28BBC+HD+-+23Jun2012%29-dylwys&amp;tr=udp%3A%2F%2Ftracker.openbittorrent.com%3A80&amp;tr=udp%3A%2F%2Fopen.demonii.com%3A1337&amp;tr=udp%3A%2F%2Ftracker.coppersurfer.tk%3A6969&amp;tr=udp%3A%2F%2Fexodus.desync.com%3A6969","seeders":0,"leechers":0,"uploader":null,"files":1,"time":1341279715,"description":"Format                           : MPEG-TS\nFile size                        : 1.15 GiB\nDuration                         : 13mn 12s\nOverall bit rate                 : 12.5 Mbps\n\nVideo\nID                               : 5500 (0x157C)\nMenu ID                          : 6940 (0x1B1C)\nFormat                           : AVC\nFormat/Info                      : Advanced Video Codec\nFormat profile                   : &lt;a class=&quot;__cf_email__&quot; href=&quot;/cdn-cgi/l/email-protection&quot; data-cfemail=&quot;e6ae8f818ea6aad2c8d6&quot;&gt;[email&amp;#160;protected]&lt;/a&gt;&lt;script cf-hash='f9e31' type=&quot;text/javascript&quot;&gt;\n/* &lt;![CDATA[ */!function(){try{var t=&quot;currentScript&quot;in document?document.currentScript:function(){for(var t=document.getElementsByTagName(&quot;script&quot;),e=t.length;e--;)if(t[e].getAttribute(&quot;cf-hash&quot;))return t[e]}();if(t&amp;&amp;t.previousSibling){var e,r,n,i,c=t.previousSibling,a=c.getAttribute(&quot;data-cfemail&quot;);if(a){for(e=&quot;&quot;,r=parseInt(a.substr(0,2),16),n=2;a.length-n;n+=2)i=parseInt(a.substr(n,2),16)^r,e+=String.fromCharCode(i);e=document.createTextNode(e),c.parentNode.replaceChild(e,c)}}}catch(u){}}();/* ]]&gt; */&lt;/script&gt;\nFormat settings, CABAC           : Yes\nFormat settings, ReFrames        : 4 frames\nFormat settings, GOP             : M=8, N=24\nCodec ID                         : 27\nDuration                         : 13mn 12s\nBit rate                         : 11.4 Mbps\nWidth                            : 1 920 pixels\nHeight                           : 1 080 pixels\nDisplay aspect ratio             : 16:9\nFrame rate                       : 25.000 fps\nColor space                      : YUV\nChroma subsampling               : 4:2:0\nBit depth                        : 8 bits\nScan type                        : MBAFF\nBits/(Pixel*Frame)               : 0.220\nStream size                      : 1.05 GiB (91%)\nColor primaries                  : BT.709-5, BT.1361, IEC 61966-2-4, SMPTE RP177\nTransfer characteristics         : BT.709-5, BT.1361\nMatrix coefficients              : BT.709-5, BT.1361, IEC 61966-2-4 709, SMPTE RP177\n\nAudio #1\nID                               : 5501 (0x157D)\nMenu ID                          : 6940 (0x1B1C)\nFormat                           : AC-3\nFormat/Info                      : Audio Coding 3\nMode extension                   : CM (complete main)\nCodec ID                         : 6\nDuration                         : 13mn 12s\nBit rate mode                    : Constant\nBit rate                         : 192 Kbps\nChannel(s)                       : 2 channels\nChannel positions                : Front: L R\nSampling rate                    : 48.0 KHz\nBit depth                        : 16 bits\nCompression mode                 : Lossy\nDelay relative to video          : 9ms\nStream size                      : 18.1 MiB (2%)\nLanguage                         : English\n\nAudio #2\nID                               : 5502 (0x157E)\nMenu ID                          : 6940 (0x1B1C)\nFormat                           : MPEG Audio\nFormat version                   : Version 1\nFormat profile                   : Layer 2\nCodec ID                         : 3\nDuration                         : 13mn 12s\nBit rate mode                    : Constant\nBit rate                         : 256 Kbps\nChannel(s)                       : 2 channels\nSampling rate                    : 48.0 KHz\nCompression mode                 : Lossy\nDelay relative to video          : 120ms\nStream size                      : 24.2 MiB (2%)\nLanguage                         : nar\n\nText #1\nID                               : 5503 (0x157F)-888\nMenu ID                          : 6940 (0x1B1C)\nFormat                           : Teletext Subtitle\nLanguage                         : English\n\nText #2\nID                               : 5504 (0x1580)\nMenu ID                          : 6940 (0x1B1C)\nFormat                           : DVB Subtitle\nCodec ID                         : 6\nDuration                         : 13mn 11s\nDelay relative to video          : 480ms\nLanguage                         : English\n","torrent":{"xt":"urn:btih:fadc5edf6927def434828e30e6fb340a80ff506a","amp;dn":"Nicki+Minaj+%40+Hackney+2012+%28BBC+HD+-+23Jun2012%29-dylwys","amp;tr":["udp%3A%2F%2Ftracker.openbittorrent.com%3A80","udp%3A%2F%2Fopen.demonii.com%3A1337","udp%3A%2F%2Ftracker.coppersurfer.tk%3A6969","udp%3A%2F%2Fexodus.desync.com%3A6969"],"infoHash":"fadc5edf6927def434828e30e6fb340a80ff506a","infoHashBuffer":{"type":"Buffer","data":[250,220,94,223,105,39,222,244,52,130,142,48,230,251,52,10,128,255,80,106]},"announce":[],"urlList":[]}}